<svg width="17" height="18" viewBox="0 0 17 18" fill="none" xmlns="http://www.w3.org/2000/svg">
<path d="M6.3 0.5H0.7C0.3136 0.5 0 0.8136 0 1.2V6.8C0 7.1864 0.3136 7.5 0.7 7.5H6.3C6.6864 7.5 7 7.1864 7 6.8V1.2C7 0.8136 6.6864 0.5 6.3 0.5Z" fill="white"/>
<path d="M13.3 7.5C15.2299 7.5 16.8 5.9299 16.8 4C16.8 2.0701 15.2299 0.5 13.3 0.5C11.3701 0.5 9.79999 2.0701 9.79999 4C9.79999 5.9299 11.3701 7.5 13.3 7.5Z" fill="white"/>
<path d="M4.12614 10.6866C4.00749 10.4496 3.76494 10.2998 3.49999 10.2998C3.23504 10.2998 2.99249 10.4496 2.87384 10.6866L0.0738441 16.2866C-0.0346559 16.5036 -0.0231059 16.7612 0.104644 16.9677C0.232044 17.1742 0.457444 17.2998 0.699994 17.2998H6.29999C6.54254 17.2998 6.76794 17.1742 6.89534 16.968C7.02309 16.7615 7.03429 16.5039 6.92614 16.2869L4.12614 10.6866Z" fill="white"/>
<path fill-rule="evenodd" clip-rule="evenodd" d="M14.0431 17.2998H14.7C15.8581 17.2998 16.8 16.358 16.8 15.1998V14.5429L14.0431 17.2998ZM16.8 12.563L12.0632 17.2998H11.9C11.5112 17.2998 11.1467 17.1936 10.8341 17.0088L16.509 11.3339C16.6938 11.6465 16.8 12.011 16.8 12.3998V12.563ZM9.93143 15.9316L15.4317 10.4313C15.2038 10.3463 14.9572 10.2998 14.7 10.2998H14.3931L9.79999 14.8929V15.1998C9.79999 15.457 9.84645 15.7036 9.93143 15.9316ZM12.4132 10.2998L9.79999 12.913V12.3998C9.79999 11.2417 10.7418 10.2998 11.9 10.2998H12.4132Z" fill="white"/>
</svg>
