<svg width="148" height="26" viewBox="0 0 148 26" fill="none" xmlns="http://www.w3.org/2000/svg">
<path d="M9 0H1C0.448 0 0 0.448 0 1V9C0 9.552 0.448 10 1 10H9C9.552 10 10 9.552 10 9V1C10 0.448 9.552 0 9 0Z" fill="white"/>
<path d="M19 10C21.757 10 24 7.757 24 5C24 2.243 21.757 0 19 0C16.243 0 14 2.243 14 5C14 7.757 16.243 10 19 10Z" fill="white"/>
<path d="M5.8945 14.5525C5.725 14.214 5.3785 14 5 14C4.6215 14 4.275 14.214 4.1055 14.5525L0.105502 22.5525C-0.0494976 22.8625 -0.0329976 23.2305 0.149502 23.5255C0.331502 23.8205 0.653502 24 1 24H9C9.3465 24 9.6685 23.8205 9.8505 23.526C10.033 23.231 10.049 22.863 9.8945 22.553L5.8945 14.5525Z" fill="white"/>
<path fill-rule="evenodd" clip-rule="evenodd" d="M20.0616 24H21C22.6545 24 24 22.6545 24 21V20.0616L20.0616 24ZM24 17.2331L17.2331 24H17C16.4445 24 15.9239 23.8483 15.4773 23.5843L23.5843 15.4773C23.8483 15.9239 24 16.4445 24 17V17.2331ZM14.1878 22.0454L22.0454 14.1878C21.7197 14.0664 21.3675 14 21 14H20.5616L14 20.5616V21C14 21.3675 14.0664 21.7197 14.1878 22.0454ZM17.7331 14L14 17.7331V17C14 15.3455 15.3455 14 17 14H17.7331Z" fill="white"/>
<path fill-rule="evenodd" clip-rule="evenodd" d="M47.936 25L46.176 20.072H37.92L36.128 25H32.064L40.48 2.72801H43.616L52.032 25H47.936ZM43.552 12.264L42.08 7.68801H41.984L40.544 12.168L39.04 16.776H45.024L43.552 12.264ZM61.628 25V23.528L61.564 23.464C61.0093 24.0827 60.38 24.52 59.676 24.776C58.972 25.032 58.2787 25.16 57.596 25.16C56.3373 25.16 55.3347 24.9147 54.588 24.424C53.8413 23.9333 53.276 23.2987 52.892 22.52C52.508 21.7413 52.2573 20.8613 52.14 19.88C52.0227 18.8987 51.964 17.928 51.964 16.968C51.964 16.072 52.0493 15.1493 52.22 14.2C52.3907 13.2507 52.7 12.3867 53.148 11.608C53.596 10.8293 54.2093 10.1947 54.988 9.70401C55.7667 9.21334 56.764 8.96801 57.98 8.96801C58.6627 8.96801 59.3293 9.096 59.98 9.35201C60.6307 9.60801 61.1587 9.992 61.564 10.504L61.628 10.472V1.76801H65.244V25H61.628ZM61.628 17.064C61.628 16.5733 61.6013 16.056 61.548 15.512C61.4947 14.968 61.3667 14.4667 61.164 14.008C60.9613 13.5493 60.668 13.1707 60.284 12.872C59.9 12.5733 59.3773 12.424 58.716 12.424C58.012 12.424 57.4627 12.5787 57.068 12.888C56.6733 13.1973 56.3693 13.5867 56.156 14.056C55.9427 14.5253 55.8093 15.048 55.756 15.624C55.7027 16.2 55.676 16.7547 55.676 17.288C55.676 17.7787 55.7027 18.2907 55.756 18.824C55.8093 19.3573 55.9427 19.8427 56.156 20.28C56.3693 20.7173 56.668 21.0747 57.052 21.352C57.436 21.6293 57.9693 21.768 58.652 21.768C59.3133 21.768 59.8413 21.6133 60.236 21.304C60.6307 20.9947 60.9347 20.6053 61.148 20.136C61.3613 19.6667 61.4947 19.16 61.548 18.616C61.6013 18.072 61.628 17.5547 61.628 17.064ZM76.408 25V23.528L76.344 23.464C75.7893 24.0827 75.16 24.52 74.456 24.776C73.752 25.032 73.0587 25.16 72.376 25.16C71.1173 25.16 70.1147 24.9147 69.368 24.424C68.6213 23.9333 68.056 23.2987 67.672 22.52C67.288 21.7413 67.0373 20.8613 66.92 19.88C66.8027 18.8987 66.744 17.928 66.744 16.968C66.744 16.072 66.8293 15.1493 67 14.2C67.1707 13.2507 67.48 12.3867 67.928 11.608C68.376 10.8293 68.9893 10.1947 69.768 9.70401C70.5467 9.21334 71.544 8.96801 72.76 8.96801C73.4427 8.96801 74.1093 9.096 74.76 9.35201C75.4107 9.60801 75.9387 9.992 76.344 10.504L76.408 10.472V1.76801H80.024V25H76.408ZM76.408 17.064C76.408 16.5733 76.3813 16.056 76.328 15.512C76.2747 14.968 76.1467 14.4667 75.944 14.008C75.7413 13.5493 75.448 13.1707 75.064 12.872C74.68 12.5733 74.1573 12.424 73.496 12.424C72.792 12.424 72.2427 12.5787 71.848 12.888C71.4533 13.1973 71.1493 13.5867 70.936 14.056C70.7227 14.5253 70.5893 15.048 70.536 15.624C70.4827 16.2 70.456 16.7547 70.456 17.288C70.456 17.7787 70.4827 18.2907 70.536 18.824C70.5893 19.3573 70.7227 19.8427 70.936 20.28C71.1493 20.7173 71.448 21.0747 71.832 21.352C72.216 21.6293 72.7493 21.768 73.432 21.768C74.0933 21.768 74.6213 21.6133 75.016 21.304C75.4107 20.9947 75.7147 20.6053 75.928 20.136C76.1413 19.6667 76.2747 19.16 76.328 18.616C76.3813 18.072 76.408 17.5547 76.408 17.064ZM93.844 20.168C93.844 20.9573 93.6733 21.6613 93.332 22.28C92.9907 22.8987 92.5267 23.4267 91.94 23.864C91.3533 24.3013 90.6707 24.632 89.892 24.856C89.1133 25.08 88.276 25.192 87.38 25.192C86.2067 25.192 85.0387 25.032 83.876 24.712C82.7133 24.392 81.588 23.752 80.5 22.792L82.452 20.2C83.1987 20.8827 83.9933 21.368 84.836 21.656C85.6787 21.944 86.58 22.088 87.54 22.088C88.308 22.088 88.9587 21.928 89.492 21.608C90.0253 21.288 90.292 20.84 90.292 20.264C90.292 19.7093 90.068 19.2987 89.62 19.032C89.172 18.7653 88.4573 18.5787 87.476 18.472C86.772 18.3867 86.0627 18.28 85.348 18.152C84.6333 18.024 83.988 17.8 83.412 17.48C82.836 17.16 82.3667 16.7227 82.004 16.168C81.6413 15.6133 81.46 14.8773 81.46 13.96C81.46 13.1493 81.62 12.4347 81.94 11.816C82.26 11.1973 82.6867 10.68 83.22 10.264C83.7533 9.848 84.3773 9.53334 85.092 9.32001C85.8067 9.10667 86.5693 9.00001 87.38 9.00001C88.596 9.00001 89.6947 9.13334 90.676 9.40001C91.6573 9.66667 92.5853 10.1307 93.46 10.792L91.732 13.544C90.9853 13.0533 90.244 12.7013 89.508 12.488C88.772 12.2747 88.084 12.168 87.444 12.168C86.5907 12.168 85.9507 12.3333 85.524 12.664C85.0973 12.9947 84.884 13.3947 84.884 13.864C84.884 14.3973 85.1827 14.7813 85.78 15.016C86.3773 15.2507 87.3373 15.4427 88.66 15.592C89.3 15.656 89.9347 15.7787 90.564 15.96C91.1933 16.1413 91.748 16.4027 92.228 16.744C92.708 17.0853 93.0973 17.5333 93.396 18.088C93.6947 18.6427 93.844 19.336 93.844 20.168ZM100.048 25C98.8747 25 97.904 24.6587 97.136 23.976C96.368 23.2933 95.984 22.312 95.984 21.032V12.072H94.16V9.12801H96.016V5.00001H99.536V9.12801H101.968V12.072H99.568V20.04C99.568 20.5947 99.6747 21.032 99.888 21.352C100.101 21.672 100.485 21.832 101.04 21.832H102.224V25H100.048ZM110.156 12.36C109.281 12.36 108.567 12.6267 108.012 13.16C107.457 13.6933 107.18 14.472 107.18 15.496V25.032H103.564V9.16001H107.116V11.048H107.244C108.204 9.68267 109.484 9.00001 111.084 9.00001C111.681 9.00001 112.225 9.064 112.716 9.19201C113.207 9.32001 113.665 9.53334 114.092 9.83201L112.748 13.096C112.3 12.8187 111.863 12.6267 111.436 12.52C111.009 12.4133 110.583 12.36 110.156 12.36ZM119.432 9.00001C120.328 9.00001 121.171 9.08 121.96 9.24001C122.749 9.40001 123.443 9.68267 124.04 10.088C124.637 10.4933 125.112 11.032 125.464 11.704C125.816 12.376 125.992 13.224 125.992 14.248V25H122.376V23.592L122.312 23.56C121.885 24.1147 121.293 24.52 120.536 24.776C119.779 25.032 118.995 25.16 118.184 25.16C116.499 25.16 115.165 24.7493 114.184 23.928C113.203 23.1067 112.712 21.928 112.712 20.392C112.712 19.752 112.829 19.144 113.064 18.568C113.299 17.992 113.64 17.4853 114.088 17.048C114.536 16.6107 115.096 16.264 115.768 16.008C116.44 15.752 117.213 15.624 118.088 15.624H122.376V14.472C122.376 14.1733 122.328 13.8853 122.232 13.608C122.136 13.3307 121.971 13.0907 121.736 12.888C121.501 12.6853 121.181 12.52 120.776 12.392C120.371 12.264 119.859 12.2 119.24 12.2C118.365 12.2 117.629 12.312 117.032 12.536C116.435 12.76 115.912 13.0853 115.464 13.512L113.544 11.08C114.312 10.312 115.208 9.77334 116.232 9.46401C117.256 9.15467 118.323 9.00001 119.432 9.00001ZM116.136 20.136C116.136 20.3707 116.184 20.6053 116.28 20.84C116.376 21.0747 116.536 21.2827 116.76 21.464C116.984 21.6453 117.272 21.7947 117.624 21.912C117.976 22.0293 118.419 22.088 118.952 22.088C119.357 22.088 119.752 22.0507 120.136 21.976C120.52 21.9013 120.867 21.7787 121.176 21.608C121.485 21.4373 121.747 21.2133 121.96 20.936C122.173 20.6587 122.301 20.3067 122.344 19.88C122.365 19.752 122.376 19.592 122.376 19.4V18.376H118.696C117.779 18.376 117.123 18.5467 116.728 18.888C116.333 19.2293 116.136 19.6453 116.136 20.136ZM139.62 22.856C138.852 23.6027 137.999 24.1787 137.06 24.584C136.121 24.9893 135.108 25.192 134.02 25.192C133.06 25.192 132.143 25.0373 131.268 24.728C130.393 24.4187 129.62 23.9387 128.948 23.288C128.276 22.6373 127.743 21.8 127.348 20.776C126.953 19.752 126.756 18.5253 126.756 17.096C126.756 15.6667 126.964 14.44 127.38 13.416C127.796 12.392 128.345 11.5493 129.028 10.888C129.711 10.2267 130.5 9.74667 131.396 9.44801C132.292 9.14934 133.209 9.00001 134.148 9.00001C136.26 9.00001 138.063 9.74666 139.556 11.24L137.22 13.768C136.281 12.7867 135.279 12.296 134.212 12.296C132.996 12.296 132.068 12.68 131.428 13.448C130.788 14.216 130.468 15.432 130.468 17.096C130.468 18.7387 130.783 19.944 131.412 20.712C132.041 21.48 132.964 21.864 134.18 21.864C134.713 21.864 135.247 21.7253 135.78 21.448C136.313 21.1707 136.804 20.808 137.252 20.36L139.62 22.856ZM145.408 25C144.235 25 143.264 24.6587 142.496 23.976C141.728 23.2933 141.344 22.312 141.344 21.032V12.072H139.52V9.12801H141.376V5.00001H144.896V9.12801H147.328V12.072H144.928V20.04C144.928 20.5947 145.035 21.032 145.248 21.352C145.461 21.672 145.845 21.832 146.4 21.832H147.584V25H145.408Z" fill="white"/>
</svg>
